# xmcd
#
# Track frame offsets:
#	150
#	13898
#	28441
#	42500
#	55736
#	68909
#	86754
#	100552
#	116906
#	127567
#	145338
#	160393
#	176518
#	193994
#	209030
#	223965
#	240242
#	251732
#	267737
#	283283
#	298458
#	315206
#	336069
#
# Disc length: 4678 seconds
#
# Revision: 1
# Processed by: cddbd v1.5.2PL0 Copyright (c) Steve Scherf et al.
# Submitted via: audiograbber 1.83.01
#
DISCID=76124417
DTITLE=Various Artist - CDXMAS 1035
DYEAR=2015
DGENRE=Country
TTITLE0=Kenny Rogers ft. Jennifer Nettles - Here It Is Christmas-Baby It's Cold
TTITLE0=Outside
TTITLE1=Mickey Guyton - Do You Want To Build A Snowman
TTITLE2=John Berry - Blue Christmas
TTITLE3=The Nickel Slots - A Shot And A Beer For Christmas
TTITLE4=Eric Durrance - A Southern Christmas
TTITLE5=Teea Goans - All I Want For Christmas Is You
TTITLE6=J Michael Harter - Another Trip Around The Sun
TTITLE7=Troy Johnson - Children On Christmas Day
TTITLE8=Sarah Dunn Band - Christmas Day
TTITLE9=Emily Vance - Christmas Stays The Same
TTITLE10=Robby Johnson - Happy Xmas War Is Over
TTITLE11=Claire Petrie  ft. T Graham Brown - He Would Be King
TTITLE12=Allie Louise - Hometown Christmas
TTITLE13=CJ Garton - Mary Did You Know
TTITLE14=Skylar Elise - Motorcycle Santa
TTITLE15=Maiden Dixie - O Come O Come Emmanuel
TTITLE16=Robby Johnson - Rudolph The Red Nosed Reindeer
TTITLE17=Leslie Cours Mather - Santa Baby You'll Be Mine
TTITLE18=Greg Sterling - That Better Be Santa Claus
TTITLE19=Stephanie Thompson - The Blessing of Christmas
TTITLE20=Rusty Rierson - The Reason For The Season
TTITLE21=Teea Goans - They Saw A King
TTITLE22=James Robert Webb - Wonderful Christmas Time
EXTD=
EXTT0=
EXTT1=
EXTT2=
EXTT3=
EXTT4=
EXTT5=
EXTT6=
EXTT7=
EXTT8=
EXTT9=
EXTT10=
EXTT11=
EXTT12=
EXTT13=
EXTT14=
EXTT15=
EXTT16=
EXTT17=
EXTT18=
EXTT19=
EXTT20=
EXTT21=
EXTT22=
PLAYORDER=
